Coordinates											
version=1											
nRows=49											
nColumns=12											
inDegrees=yes											
											
"Units are S.I. units (second, meters, Newtons, ...)"											
"If the header above contains a line with 'inDegrees', this indicates whether rotational values are in degrees (yes) or radians (no)."											
											
endheader											
time	clav_prot	clav_elev	scapula_abduction	scapula_elevation	scapula_upward_rot	scapula_winging	plane_elv	shoulder_elv	axial_rot	elbow_flexion	pro_sup
0	-17.88964591	-3.83304119	-3.64430212	-3.76247721	14.3408256	4.38001689	-18.30126557	15.86714586	33.39222251	0	34.32
0.01	-17.89434009	-3.81703886	-3.63199899	-3.76136248	14.3825998	4.36617818	-18.28548069	15.91893549	33.42213498	0	34.32
0.02	-17.78482185	-3.675795	-3.4690673	-3.65003253	14.38989259	4.30263056	-18.26207423	16.08690985	33.41460117	0	34.32
0.03	-17.82260598	-3.53554123	-3.36546641	-3.63340901	14.73189591	4.18034493	-18.86501955	15.85167252	34.2391656	0	34.32
0.04	-17.82390223	-3.52124373	-3.36661017	-3.6247138	14.73991057	4.17502701	-18.85400268	15.88429629	34.25655868	0	34.32
0.05	-17.75983966	-3.44828829	-3.30557563	-3.55127702	14.68306546	4.15683107	-18.90320857	15.97987218	34.55848482	0	34.32
0.06	-17.70564025	-3.50538219	-3.12248853	-3.62387925	14.80666692	4.13102359	-19.14915679	15.86656485	34.77806022	0	34.32
0.07	-17.7021612	-3.62334335	-3.16573237	-3.67991398	14.6763516	4.19792164	-18.35974268	16.37559178	29.9481325	0	34.32
0.08	-17.3209375	-2.99598148	-2.30906094	-3.3287915	15.24005713	3.80086997	-19.44243285	15.530274	37.34839794	0	34.32
0.09	-17.33124543	-3.00690427	-2.3310261	-3.33476618	15.22899724	3.80896735	-19.43509432	15.52627235	37.35764472	0	34.32
0.1	-17.49459203	-3.29050402	-2.71218019	-3.48888354	14.95843299	3.99011133	-19.20811992	15.66459642	36.41065328	0	34.32
0.11	-17.66387674	-3.43205255	-3.06391946	-3.56710407	14.81115669	4.10077491	-18.87200337	15.78226977	34.58898452	0	34.32
0.12	-17.56096908	-3.32312456	-2.77011211	-3.53887956	15.04368751	3.99009456	-19.81982774	15.5262903	37.57146796	0	34.32
0.13	-17.554821	-3.323034	-2.75701827	-3.53946637	15.04726636	3.98795987	-19.80520346	15.50765739	37.57921655	0	34.32
0.14	-17.52552108	-3.37483905	-2.77081565	-3.54399821	14.91731203	4.03059472	-19.49738809	15.64287639	36.23271801	0	34.32
0.15	-17.52254665	-3.27648821	-2.72407017	-3.49707789	15.02632654	3.97400421	-19.4576666	15.55462662	36.05574029	0	34.32
0.16	-17.58447221	-3.17971879	-2.77716957	-3.46083036	15.1592037	3.92438745	-19.78195272	15.11762743	40.53433562	0	34.32
0.17	-17.5319391	-3.20628029	-2.66766428	-3.48265395	15.17618759	3.91728274	-19.86302275	15.11432284	40.91643136	0	34.32
0.18	-17.59541237	-3.41496322	-2.85879995	-3.58887994	14.95955097	4.0445136	-19.02764778	15.50563374	37.41988554	0	34.32
0.19	-17.38322079	-3.26623588	-2.43512885	-3.50219587	15.10343401	3.92376336	-19.14748774	15.45757995	38.11610059	0	34.32
0.2	-17.38654345	-3.25087243	-2.44681079	-3.48962877	15.09941761	3.92110846	-19.15163112	15.45314803	38.120132	0	34.32
0.21	-17.55736261	-3.38396662	-2.79376053	-3.56592119	14.96912396	4.0260474	-18.79270655	15.62616254	35.10980136	0	34.32
0.22	-17.56447658	-3.36974805	-2.80408835	-3.55774412	14.97826101	4.02091351	-18.78167136	15.60621321	35.12811132	0	34.32
0.23	-17.64534008	-3.1498452	-2.83257458	-3.46613133	15.25705849	3.90238801	-19.49384278	14.86096012	41.49599606	0	34.32
0.24	-17.57808721	-3.27457117	-2.80972015	-3.50389202	15.04757847	3.97876206	-19.03770008	15.33150841	37.2971547	0	34.32
0.25	-17.58079098	-3.2536668	-2.80120242	-3.49585748	15.0778715	3.96529356	-18.7593749	15.34141449	37.10122452	0	34.32
0.26	-17.62460933	-3.31654572	-2.93049804	-3.51710906	14.96576957	4.02068669	-18.96939783	15.4597662	36.45380005	0	34.32
0.27	-17.62437452	-3.33976233	-2.87032466	-3.55787482	15.05581974	4.00389243	-19.24241386	15.41646906	36.78888124	0	34.32
0.28	-17.60802822	-3.29605479	-2.86329663	-3.51904922	15.03729095	3.99318315	-18.37595639	15.71463908	34.1549897	0	34.32
0.29	-17.5360725	-3.37243647	-2.87023677	-3.50821708	14.78335621	4.06663433	-18.46400554	15.85299507	34.01259981	0	34.32
0.3	-17.57145007	-3.3662302	-2.81040509	-3.55840754	14.98972233	4.01820429	-18.361077	15.65317255	34.29554892	0	34.32
0.31	-17.55741081	-3.22007321	-2.74638843	-3.47862673	15.11447549	3.94200596	-19.16510311	15.33165007	37.24828439	0	34.32
0.32	-17.54496834	-3.21115287	-2.75310361	-3.45978518	15.07020546	3.948572	-18.67089395	15.3931959	36.78479634	0	34.32
0.33	-17.47745756	-3.1489894	-2.72462144	-3.37695344	14.94502336	3.95088361	-18.20187709	15.74665189	35.83672075	0	34.32
0.34	-17.64609962	-3.24017295	-2.84289976	-3.52160436	15.20528257	3.9410141	-19.37388482	15.17775283	38.32463636	0	34.32
0.35	-17.61463269	-3.33520131	-2.80240462	-3.57583087	15.14142664	3.97804733	-19.69303375	15.12161292	39.48149504	0	34.32
0.36	-17.62417249	-3.3440214	-2.81810295	-3.5829089	15.14060746	3.98320404	-19.03005734	15.20125298	38.79916286	0	34.32
0.37	-17.6191745	-3.33124295	-2.82135243	-3.56899709	15.12546105	3.98245608	-19.04452186	15.20844067	38.80472795	0	34.32
0.38	-17.5959022	-3.29546085	-2.79243001	-3.53911947	15.11950826	3.96888952	-19.25276816	15.22000694	38.01930933	0	34.32
0.39	-17.59076455	-3.28579798	-2.79403208	-3.52805353	15.10610046	3.9691585	-19.25150088	15.20894732	38.02603697	0	34.32
0.4	-17.51011925	-3.2551306	-2.70862797	-3.47965946	15.02416418	3.9660038	-18.78314153	15.41240225	35.95435296	0	34.32
0.41	-17.51015475	-3.18860733	-2.62451385	-3.47199781	15.1912518	3.90416277	-19.69885598	14.95193476	40.1941199	0	34.32
0.42	-17.59595694	-3.23649631	-2.86007637	-3.47167392	15.03152286	3.97572571	-18.90214246	15.15480834	39.13815155	0	34.32
0.43	-17.48153533	-3.31837339	-2.72901513	-3.48943606	14.88071179	4.01555554	-18.74292836	15.36588153	38.04434819	0	34.32
0.44	-17.53189333	-3.39369526	-2.84347035	-3.53033749	14.80720441	4.06568464	-19.03031714	15.34540622	37.91016093	0	34.32
0.45	-17.58296465	-3.37263745	-2.81225869	-3.57101869	15.01774808	4.01509628	-18.99881939	15.13692857	38.03383847	0	34.32
0.46	-17.69851831	-3.44802798	-3.14413888	-3.57117396	14.77284963	4.12200962	-18.35509791	15.49692444	34.47685647	0	34.32
0.47	-17.56721089	-3.19653822	-2.75201268	-3.46847598	15.14301456	3.92948367	-19.57315981	14.7039346	41.36917274	0	34.32
0.48	-17.56069988	-3.19663135	-2.74856364	-3.46486581	15.1298777	3.93218786	-19.5675849	14.69440587	41.37192846	0	34.32
